<mxfile host="app.diagrams.net" modified="2021-12-23T08:27:07.704Z" agent="5.0 (Macintosh; Intel Mac OS X 10_15_7) AppleWebKit/537.36 (KHTML, like Gecko) Chrome/96.0.4664.110 Safari/537.36" etag="cxvEUD3jIo2dph9BiJdc" version="16.0.3" type="github">
  <diagram id="KDvVAVRVQBNo93PL3K_o" name="Page-1">
    <mxGraphModel dx="2025" dy="1129" grid="1" gridSize="10" guides="1" tooltips="1" connect="1" arrows="1" fold="1" page="1" pageScale="1" pageWidth="827" pageHeight="1169" math="0" shadow="0">
      <root>
        <mxCell id="0" />
        <mxCell id="1" parent="0" />
        <mxCell id="HnoCS5KhanWHyarU9qus-1" style="rounded=0;orthogonalLoop=1;jettySize=auto;html=1;" edge="1" parent="1" source="HnoCS5KhanWHyarU9qus-4" target="HnoCS5KhanWHyarU9qus-13">
          <mxGeometry relative="1" as="geometry" />
        </mxCell>
        <mxCell id="HnoCS5KhanWHyarU9qus-2" value="1. 提 issue" style="edgeLabel;html=1;align=center;verticalAlign=middle;resizable=0;points=[];" vertex="1" connectable="0" parent="HnoCS5KhanWHyarU9qus-1">
          <mxGeometry x="0.0666" y="3" relative="1" as="geometry">
            <mxPoint as="offset" />
          </mxGeometry>
        </mxCell>
        <mxCell id="HnoCS5KhanWHyarU9qus-3" style="edgeStyle=none;rounded=0;orthogonalLoop=1;jettySize=auto;html=1;" edge="1" parent="1" source="HnoCS5KhanWHyarU9qus-4" target="HnoCS5KhanWHyarU9qus-20">
          <mxGeometry relative="1" as="geometry">
            <mxPoint x="250" y="837.49" as="targetPoint" />
          </mxGeometry>
        </mxCell>
        <mxCell id="HnoCS5KhanWHyarU9qus-4" value="需求方" style="shape=umlActor;verticalLabelPosition=bottom;verticalAlign=top;html=1;outlineConnect=0;fontSize=16;" vertex="1" parent="1">
          <mxGeometry x="135" y="704.98" width="30" height="60" as="geometry" />
        </mxCell>
        <mxCell id="HnoCS5KhanWHyarU9qus-5" style="edgeStyle=none;rounded=0;orthogonalLoop=1;jettySize=auto;html=1;" edge="1" parent="1" source="HnoCS5KhanWHyarU9qus-6" target="HnoCS5KhanWHyarU9qus-20">
          <mxGeometry relative="1" as="geometry" />
        </mxCell>
        <mxCell id="HnoCS5KhanWHyarU9qus-6" value="assignee" style="shape=umlActor;verticalLabelPosition=bottom;verticalAlign=top;html=1;outlineConnect=0;fontSize=16;" vertex="1" parent="1">
          <mxGeometry x="354" y="707.49" width="30" height="60" as="geometry" />
        </mxCell>
        <mxCell id="HnoCS5KhanWHyarU9qus-7" value="3. 分配" style="edgeStyle=none;rounded=0;orthogonalLoop=1;jettySize=auto;html=1;entryX=0.5;entryY=0.5;entryDx=0;entryDy=0;entryPerimeter=0;" edge="1" parent="1" source="HnoCS5KhanWHyarU9qus-10" target="HnoCS5KhanWHyarU9qus-6">
          <mxGeometry relative="1" as="geometry" />
        </mxCell>
        <mxCell id="HnoCS5KhanWHyarU9qus-8" style="edgeStyle=none;rounded=0;orthogonalLoop=1;jettySize=auto;html=1;dashed=1;fontColor=#666666;strokeColor=#666666;" edge="1" parent="1" source="HnoCS5KhanWHyarU9qus-10" target="HnoCS5KhanWHyarU9qus-28">
          <mxGeometry relative="1" as="geometry">
            <Array as="points">
              <mxPoint x="369" y="460" />
              <mxPoint x="986" y="460" />
            </Array>
          </mxGeometry>
        </mxCell>
        <mxCell id="HnoCS5KhanWHyarU9qus-9" value="&lt;b&gt;&lt;font color=&quot;#cc0066&quot;&gt;6.3 值班同学，在这个时间（第二周的周二、三），提醒大家去建单&lt;/font&gt;&lt;/b&gt;" style="edgeLabel;html=1;align=center;verticalAlign=middle;resizable=0;points=[];fontColor=#666666;" vertex="1" connectable="0" parent="HnoCS5KhanWHyarU9qus-8">
          <mxGeometry x="0.2122" y="3" relative="1" as="geometry">
            <mxPoint x="6" y="-7" as="offset" />
          </mxGeometry>
        </mxCell>
        <mxCell id="HnoCS5KhanWHyarU9qus-10" value="&lt;font color=&quot;#666666&quot;&gt;值班同学&lt;/font&gt;" style="shape=umlActor;verticalLabelPosition=bottom;verticalAlign=top;html=1;outlineConnect=0;fontSize=16;strokeColor=#666666;" vertex="1" parent="1">
          <mxGeometry x="354" y="512" width="30" height="60" as="geometry" />
        </mxCell>
        <mxCell id="HnoCS5KhanWHyarU9qus-11" style="edgeStyle=none;rounded=0;orthogonalLoop=1;jettySize=auto;html=1;entryX=0.5;entryY=0.5;entryDx=0;entryDy=0;entryPerimeter=0;" edge="1" parent="1" source="HnoCS5KhanWHyarU9qus-13" target="HnoCS5KhanWHyarU9qus-10">
          <mxGeometry relative="1" as="geometry" />
        </mxCell>
        <mxCell id="HnoCS5KhanWHyarU9qus-12" value="2. 收到通知" style="edgeLabel;html=1;align=center;verticalAlign=middle;resizable=0;points=[];" vertex="1" connectable="0" parent="HnoCS5KhanWHyarU9qus-11">
          <mxGeometry x="-0.1092" y="3" relative="1" as="geometry">
            <mxPoint y="1" as="offset" />
          </mxGeometry>
        </mxCell>
        <mxCell id="HnoCS5KhanWHyarU9qus-13" value="Issues 池子" style="swimlane;fontStyle=0;childLayout=stackLayout;horizontal=1;startSize=26;horizontalStack=0;resizeParent=1;resizeParentMax=0;resizeLast=0;collapsible=1;marginBottom=0;strokeColor=#666666;" vertex="1" parent="1">
          <mxGeometry x="80" y="490" width="140" height="104" as="geometry" />
        </mxCell>
        <mxCell id="HnoCS5KhanWHyarU9qus-14" value="issue 1" style="text;strokeColor=none;fillColor=none;align=left;verticalAlign=top;spacingLeft=4;spacingRight=4;overflow=hidden;rotatable=0;points=[[0,0.5],[1,0.5]];portConstraint=eastwest;" vertex="1" parent="HnoCS5KhanWHyarU9qus-13">
          <mxGeometry y="26" width="140" height="26" as="geometry" />
        </mxCell>
        <mxCell id="HnoCS5KhanWHyarU9qus-15" value="issue 2" style="text;strokeColor=none;fillColor=none;align=left;verticalAlign=top;spacingLeft=4;spacingRight=4;overflow=hidden;rotatable=0;points=[[0,0.5],[1,0.5]];portConstraint=eastwest;" vertex="1" parent="HnoCS5KhanWHyarU9qus-13">
          <mxGeometry y="52" width="140" height="26" as="geometry" />
        </mxCell>
        <mxCell id="HnoCS5KhanWHyarU9qus-16" value="issue 3" style="text;strokeColor=none;fillColor=none;align=left;verticalAlign=top;spacingLeft=4;spacingRight=4;overflow=hidden;rotatable=0;points=[[0,0.5],[1,0.5]];portConstraint=eastwest;" vertex="1" parent="HnoCS5KhanWHyarU9qus-13">
          <mxGeometry y="78" width="140" height="26" as="geometry" />
        </mxCell>
        <mxCell id="HnoCS5KhanWHyarU9qus-17" value="方案 &amp;amp; DDL" style="shape=cube;whiteSpace=wrap;html=1;boundedLbl=1;backgroundOutline=1;darkOpacity=0.05;darkOpacity2=0.1;strokeColor=#666666;fontColor=#666666;" vertex="1" parent="1">
          <mxGeometry x="550.5" y="522" width="106" height="50" as="geometry" />
        </mxCell>
        <mxCell id="HnoCS5KhanWHyarU9qus-18" style="edgeStyle=none;rounded=0;orthogonalLoop=1;jettySize=auto;html=1;dashed=1;strokeColor=#666666;" edge="1" parent="1" source="HnoCS5KhanWHyarU9qus-20" target="HnoCS5KhanWHyarU9qus-17">
          <mxGeometry relative="1" as="geometry" />
        </mxCell>
        <mxCell id="HnoCS5KhanWHyarU9qus-19" style="edgeStyle=none;rounded=0;orthogonalLoop=1;jettySize=auto;html=1;" edge="1" parent="1" source="HnoCS5KhanWHyarU9qus-20" target="HnoCS5KhanWHyarU9qus-23">
          <mxGeometry relative="1" as="geometry" />
        </mxCell>
        <mxCell id="HnoCS5KhanWHyarU9qus-20" value="4. 讨论 &amp;amp; 协商" style="rounded=1;whiteSpace=wrap;html=1;strokeColor=#666666;" vertex="1" parent="1">
          <mxGeometry x="490" y="627.49" width="120" height="60" as="geometry" />
        </mxCell>
        <mxCell id="HnoCS5KhanWHyarU9qus-21" style="edgeStyle=none;rounded=0;orthogonalLoop=1;jettySize=auto;html=1;dashed=1;fontColor=#666666;strokeColor=#666666;" edge="1" parent="1" source="HnoCS5KhanWHyarU9qus-23" target="HnoCS5KhanWHyarU9qus-29">
          <mxGeometry relative="1" as="geometry" />
        </mxCell>
        <mxCell id="HnoCS5KhanWHyarU9qus-22" value="触发" style="edgeLabel;html=1;align=center;verticalAlign=middle;resizable=0;points=[];fontColor=#666666;" vertex="1" connectable="0" parent="HnoCS5KhanWHyarU9qus-21">
          <mxGeometry x="-0.2362" relative="1" as="geometry">
            <mxPoint as="offset" />
          </mxGeometry>
        </mxCell>
        <mxCell id="HnoCS5KhanWHyarU9qus-23" value="5. 责任人 =&amp;gt; 修改issue&lt;br&gt;&lt;font color=&quot;#ff0080&quot;&gt;&lt;b&gt;填写 DDL&lt;/b&gt;&lt;/font&gt; &lt;br&gt;&lt;b&gt;&lt;font color=&quot;#cc00cc&quot;&gt;增加&quot;QA&quot;标签(如果需要测试资源)&lt;br&gt;&lt;/font&gt;&lt;/b&gt;" style="rounded=1;whiteSpace=wrap;html=1;strokeColor=#666666;" vertex="1" parent="1">
          <mxGeometry x="670" y="627.49" width="193.5" height="60" as="geometry" />
        </mxCell>
        <mxCell id="HnoCS5KhanWHyarU9qus-24" value="" style="shape=image;verticalLabelPosition=bottom;labelBackgroundColor=#ffffff;verticalAlign=top;aspect=fixed;imageAspect=0;image=data:image/png,iVBORw0KGgoAAAANSUhEUgAABEUAAAB9CAYAAABEfd1rAAABRmlDQ1BJQ0MgUHJvZmlsZQAAKJFjYGASSSwoyGFhYGDIzSspCnJ3UoiIjFJgf8rAwyDOwMtgxSCcmFxc4BgQ4ANUwgCjUcG3awyMIPqyLsgs61ub/vxRnf0qx16HgWXFZxZM9SiAKyW1OBlI/wHitOSCohIGBsYUIFu5vKQAxO4AskWKgI4CsueA2OkQ9gYQOwnCPgJWExLkDGTfALIFkjMSgWYwvgCydZKQxNOR2FB7QYDHxdXHRyHUyMTQ3IOAc0kHJakVJSDaOb+gsigzPaNEwREYSqkKnnnJejoKRgZGhgwMoDCHqP58AxyWjGIcCLECMQYGSxcGBubFCLEkKQaG7UD3S3IixFSWMzDwRzAwbGsoSCxKhDuA8RtLcZqxEYTNvZ2BgXXa//+fwxkY2DUZGP5e////9/b///8uA5p/i4HhwDcA5FteWq+6i/gAAAA4ZVhJZk1NACoAAAAIAAGHaQAEAAAAAQAAABoAAAAAAAKgAgAEAAAAAQAABEWgAwAEAAAAAQAAAH0AAAAAwy4nNwAAQABJREFUeAHtnQeYFUX29osMAoIIiCRRQMGACpgVQcw55/yZXf2bsy5rXDGurml3za5hXRPmiAHTmgNBAQUTKoqAIBm++tXMudT03BnuzNy5c++d9zzPne6urq7uervnVNVb55xqsMSLkwgBISAEhIAQEAJCQAgIASEgBISAEBACQqCeIdCwntVX1RUCQkAICAEhIASEgBAQAkJACAgBISAEhEBAQKSIPgQhIASEgBAQAkJACAgBISAEhIAQEAJCoF4iIFKkXr52VVoICAEhIASEgBAQAkJACAgBISAEhIAQaBxDMHHixPhQ+0JACAgBISAEhIAQEAJCQAgIASEgBISAECgqBHr27JmqTxlShNT4ZCqXdoRALSAACafvrRaAVZFCQAgIASEgBCIE1N5GYGhXCAgBISAE6j0CSWMQuc/U+09CAAgBISAEhIAQEAJCQAgIASEgBISAEKifCIgUqZ/vXbUWAkJACAgBISAEhIAQEAJCQAgIASFQ7xEQKVLvPwEBIASEgBAQAkJACAgBISAEhIAQEAJCoH4iIFKkfr531VoICAEhIASEgBAQAkJACAgBISAEhEC9R0CkSL3/BASAEBACQkAICAEhIASEgBAQAkJACAiB+omASJH6+d5VayEgBISAEBACQkAICAEhIASEgBAQAvUeAZEi9f4TEABCQAgIASEgBISAEBACQkAICAEhIATqJwIiRerne1ethYAQEAJCQAgIASEgBISAEBACQkAI1HsERIrU+09AAAgBISAEhIAQEAJCQAgIASEgBISAEKifCIgUqZ/vXbUWAkJACAgBISAEhIAQEAJCQAgIASFQ7xFoXO8REABCQAgIgSJEYNGiRe6uu+5yPXr0cEOHDi1TwwkTJrg333zTbbTRRq5Pnz5lzmXr4I8//nALFiyoUnFt2rSpUn5lFgJCQAgIASFQWwg888wzrkWLFm7IkCFlbkH7dt9997kddtjBdevWrcw5HQgBIVCYCNRrUmTx4sVu7ty5jm2jRo1c8+bNXYMGDQrzTeqphYAQqFcILEt/PfLII+7mm28OmOy2224pbAYOHOgefPBBN3r0aNelSxfXq1ev1LkVV1zRnX/++anjmuz89a9/dU8//XSVinj//felg6uEmDILgcJEYFn6qzBrpacuJgS++eYbd+GFF7r111/fTZkyJVW1nj17hkmFf//7327q1KlupZVWSp3r3Lmz23HHHVPHNdkZOXKkGz58eMZF9O3b11177bUZ51fG6iMg/VV97PL5ynpFijBzOn/+fLdkyRLXpEmTsM+2YcOGbt68eeG4WbNm+fy+9GxCQAjUUwSqor8+//xzd+WVV6aQeuKJJ8L+Cius4Gx/ueWWc7/99pt77bXXHPsdO3Z086to2ZG6QSU7++23n2vXrl3IMWvWLPfGG28E6xU6cCaQNDyLRAgIgeJEoCr6qzgRUK0KCQEsQc4997zQLjIAvuaaa9zGm2zi2nprxq+++so99thjrn///m78+PHu0UcfdTvttJNj/EBbasLEw7nnnmuHy9xecsklbt11103lY1zy888/u9tvvz2Vxs5DDz3kNt100zIWKiNGjHBYgEpqBwHpr9rBNd9KrRekCETIwoULA/aNGzcOpAjKBkKkadOmIR2lh6m3SJF8+0T1PEKgfiNQHf317LPPBtBOPfVUN2jQILfHHnuEzhoduYsvvti98sorDkuOlVde2e2zzz5B7zHrhbVctmX33Xd3v/76ayCdv/32Wzdp0iS3sp9N6927d7gVHUueV6RItpFXeUKg7hGojv6q+6fWE9R3BO688073zTeTg4sMliAHHHCAW751a3fZZZe5M84803Xv3t3dcMMNYUJ1l112CcT/KaecUgY2LC/333//MmmVHcQWJ3G+9dZbz82YMSOMXUh/4YUXAimCayzS2j/XO++8I1IkoJHdP9Jf2cUz30srKlIEJg9iA4ID6w8IDtxh2CeNY4gQhLyxQJbw8du18TntCwEhIARqG4Fs6q8zfaeNGavJk0s6dex3776Ku/HGG13btm2D2wwWIgjn6Fwx23XggQfWSjUxQY5Jj7ffesvxQ/DLlggBIVDYCGRTfxU2Enr6YkDguOOOc7iajh07Nvy23HLLQEo899xzbtONN3Gre1Lf2lDiijC2mDhxosO1xqRTp05Za1MhV7AaMRk2bJjtOiY0JDVDQPqrZvgVy9VFQ4rwQc+ZM8dBbqCcIEdmz57tWrZsGeKF8MLieCHkiy1DIE44j0WJWY8Uy0tWPYSAEMhvBGpDf6EHITpMxo0b6/iZEHPE5KOPPgp6r7ZIEcyCsc7DUuT66693W2yxhcOCBIGQkQgBIVC4CNSG/ipcNPTkxYAAcQZx98QyJCm41sRuMpwnjfFGTIokr6vJMZMH/J8hkDDnn3e+23yLzcNxhw4d3Kuvvhr29afqCEh/VR2zYr2ioEgRYoFAZJhiMAKEl4OVB8dm/s2AAFKEdCxEID24jjwICi9pGUKalR0y6Y8QEAJCIEsI5Fp/7b333uVWnfnwww+D2wzuNJgDI8w+/elPfypTS9KqowvRocQmieXzzz53n4/+PCRNnz49bLFgef3118P+tF+nxdm1LwSEQB4ikGv9lYcQ6JHqGQKs2pZcuY3FGTbbbDN33XXXBUsSgwSioraE9vLdd98tU/yYsWPcwkUlYQGSbW6ZjDoICEh/6UPIBIGCIkVspRgsOfjAmXlEIEDowCfjgZDPSBHIEIsrwjV03hGugzBByMM9JEJACAiBbCOQa/31xRdfhPghcT2Y+UKILcKSvAhEc1KOOuoo9/333yeTl3mMnzVlI6Zvf/r5p1RwVyuAqP78kN9//92StRUCQiBPEci1/spTGPRY9QgBrM8vvfTSMjXGxR659dZby6w6E7u2lLmgBgd2rx9++MG3oSNSJfXp09e79IwLPxIHDOhfznIllVk7AQHpL30ImSBQMKQI5AU/TNZiEsP2cX2BKIklTktnGQIJQpmQKgjHrVq1iovQvhAQAkKgxgjUhf4aM2ZMsAJBZ7LqTCykmd5jy3H79u1TWdZaa60QeySVkOFOJx+41WTatBILkD333DPMqEFQp5N+/fq5ww8/PN0ppQkBIZAHCNSF/sqDausR6jkCxAghhsi2224bXGOAwyYRlvOuMi1atEghhPWlBQ9PJdZwh+CqWIFs4le9YbU2mwiOi2XcQkBXSBpJegSkv9LjotTyCNQ5KQITipKxAKdYd8SxP+yROU+6kSCkx/t07Cknjgdi15A3nWVIRfciv0QICAEhsCwE8ll/ffHll+HxL7jgArfRRhuFfUxwzzvvPLfXXnulJSLoPKArr7jiimVVfZnnp06dGvLQqTvooIPKBFqNLyaSvkQICIHcI5DP+iv3aOiOQqAsAuPGjQsJWIvYGAKLg6eeesodesghZdxnyl6ZnSOCk9uKNKwaZ4Fd49KZ0GCZ+/oo0l/18a3Xbp3rlBTBsgPzNMgN2E5IDQtglCRGzOqDa+Jz/FMgkCLMRFIe+6Sb64xBSLwRU2ykxaSK5dFWCAgBIZAJAvmuv8b5qPkIJEhS7r33XscvKSwxiL90NgRzYggR09dYq5x44ompoh988EEtIZhCQztCILcI5Lv+yi0aupsQKI/Al6UTC4MHDy53kuXu0wnL3TMGyYb88ssvrr0Pomqy2267lWlDict17bXX2ul6tZX+qlevO2eVzQkpwscbW4OgMOgok8bWTNBIx+c9SWaAhpEZ+KmbwqFcSBTIDkgVGFOuxcQMwsPSDU3ySISAEBACVUGgEPUXpDArvJi88847btKkSXbo1lhjDbf++uunjt9///1AUMSWdqmT1djBdQbdvOqqq5a5ul27dqlj0/upBO0IASGQdQRMf9Evon+k/lfWIVaBRYrArrvu6jbfvGSFF6w2sNYgbhbxsI444gjXq1evVM0///xzd/vtt6fGJ6kTNdj58ccfXY9odTbGNLErbH1oQ01/0adhXCf9VYMPSpcuE4FaZwn4kLHegNTgBxHCR05QVLZ85BAd5vPFE5OeFMgTOuw07HYdDTzXG2FiREjyWh0LASEgBKqDQKHqL3ThmWee6QjQds8996QIke233z74SA8aNMgdd9xxARJ07+mnnx5IEZYUzIaYOe8666yTKo5O5WmnnZY61o4QEAK1i0BSf9HXUv+rdjFX6cWDwNprrx0qw6TCjTfe6Lp06eKwpmQ5eWJhDRw4MFVZ4n8wMWuCFcdPP/1khxlvsa7ccsstw+qZuLtus802qWsfeughxy+W+J5xejHsJ/WXxo/F8Fbzuw5ZI0XoWNsHi0WGWXPQCENowHAilm6wcJ4Pn2ts6VzymxhZAiFiMUCS94nz23XaCgEhIAQyRaDY9Be+x3SebBk/ZreILQKRTOA45P7773e33HJL2MeqA1lttdXCtqZ/XvYmxIh16C688MLQPsTlQnATd4SOY21E7o/vpX0hUMwIZKK/zJo2xkH9rxgN7QuBpQgwmUtbaW6e2223XZg8iCcOxnoXVdpaxjAPPPCA69OnT6qAEU8+6d71ZEpVBcsUSJFRo0aFS7faaquwZeKCVeGSwgQIUsiruGWiv6ijxo+gIKlNBLJCitDRNrNM/kHp7CJm5oTCIM3IC/LQQJvlCISJ/WOTlw46ZmGk8c9C2eTnmDKT/xi1CZDKFgJCoLgRKEb9NXv27ECIYGp76KGHuv322y+Qzm+//XbqZa677rquW7duQTfj1kLwVSOvU5mqufOtNy9mVo17IHTykjJ69Gh30UUXpZIhbqyNSCVqRwgIgUoRyFR/MZlEXvW/KoVTJ4VAQICl5a+55hq3sV/5BUJiww03DOkEWjVhXPLpp58Gwh/ry8OjVdSuvuoqy1at7XvvvRdcYNu0aROupz3lF8uvv/7qzj777NBufvjhh2GVnPh8Iexnqr+sbyD9VQhvtXCfsRwpQsMJMYHVRiyYXHIOkoKPE6sNPk6Ej5rONAoC4XrSjMDgWtLY8uMceY0MgZE1dxrOUa6VTRmQJ3YcbqA/QkAICIE0CEh/lYCyww47ODpTG2+8ccq9kDOQJCwvuPrqqzuW3cVapDbktttuc8QpsY5MunuwxOC+++4b2pS2bdu6oUOHpsumNCFQbxCoTf1FHyyeZFL/q958VqpoNRBgIoH2M2k9yZiEdquDD4C6yiqruJtvvrkapS/7kmOOOSa4v1aWk6V4mXDg/xpLlsGDB1eWvdbP1ab+0vix1l+fbuARaOA/tFQAD9bkZrYOqw781Dhl8TogLmhUIUP4B8TsEmsOzpOPzi/p/FNwDsHMLF2nGOKDPHYPOyYvZAn3kBQ/AnxvPXv2LP6KqoY5QwD9I/2VM7h1IyEgBLKIQG3qL2tvrb+l/lcWX5yKEgJCIIz/1P/Sh1BICFi7aM9cYupRegS5AbGB4MJCA42Qxg8SBJaUGQbIEDMjg8yANOEYiw6LiGxlWUNvMxUcG9nCtViJQKDQSIsQCZDrjxAQAlVEQPqrioApuxAQAnmDgPRX3rwKPYgQEAJVRED6q4qAKXteItDY3FXM9QWSgh/khxEUfOyksSW/kSTUiDSsPkgzyxDSENIoF6IEIoRfsuyQUX+EgBAQAlVEAL0D0Yp+kf6qInjKLgSEQJ0ikGv9xaQVv7hvV6cA6OZCQAgULAK51l8aPxbsp1JQD96YQUVMWFhsD7PysNpAdNCgMvgwaxEIjlgoizTMpxio8E9DeViFmKlm8pr4eu0LASEgBDJBAEs29A36yPQXFmrSX5mgpzxCQAjUJQJ1ob/Qj/HKGXVZf91bCAiBwkWgLvQXY1CNHwv3mymUJ2+MKwwfG6sVQGIgDDQgQOwjNFcXLEcgREz4x+CYH9fiQoNwTF6uj0UfdIyG9oWAEKgMAUgP9Ap6BJ1keggShLTYMg39RTq6R/qrMlR1TggIgVwgIP2VC5R1DyEgBGoDAemv2kBVZeY7Ao0ZdJhVCIMKxAYf5v4CmQHJgQUIwrENTBiAIMxC8E/EOSM/bBsy6I8QEAJCIAME0DOmY9BFECAQrlibYYFmeomiYv2Fax+kiPRXBiArixAQArWCgPRXrcCqQoWAEMgBAtJfOQBZt8hbBEJMEYgNSA1+CAMSiwNiAwxIEdIZeCBcg5VJTHxwjUQICAEhUBMEIEEgXXGFgeRAsEpD96BzEM7zQ+eY/jJdJf0VINIfISAE6gAB6a86AF23FAJCICsISH9lBUYVUqAINGb2FeEfAYYQaw8GGgxImJ3FLB1ChB8DFBukFGh99dhCQAjUIQLoFyw90DFGYiQfB5IDCxC2JugfXPoQruO8WY6Qhv7iPPmkv0BEIgSEQLYRkP7KNqIqTwgIgVwhIP2VK6R1n0JFoDGDCX7MwhohQmUYeBhhwiBDIgSEgBCoCgLoFaw2IEHQLaZn0Cccm7VZskwjS8hj+7alLIhZ9BU/C6zKvpEtlCf9lURVx0JACFQFAemvqqClvEJACOQTAtJf+fQ29CyFgkBjLEEQBhEMMGIRGRKjoX0hIASWhQBEBmLuLQRDJQ3SAoLErDsgMLBES1qEcK25v5DHyJBkGq5+WIbE+svc/ygDkf4qwUF/hYAQyAwB6a/McFIuISAE8g8B6a/8eyd6osJCILjPMOCwQUdhPb6eVggIgXxCABc8ZigQSAr0CsQGaVh4GFFBmll8xG4yVhfOQ5jgDmMSp1EOBAudANNflk9bISAEhEB1EJD+qg5qukYICIF8QED6Kx/egp6hkBFobIOUQq6Enl0ICIHcIgBhgTUIZAekhpEXEBdYhZhFCE+FjoG4SAp5KcPEZjnIb+fMBJQ8kChJAkX6y9DTVggIgUwRkP7KFCnlEwJCIN8QkP7Ktzei5ykWBBr4QUfJtK6v0cSJE4ulXqqHEBACtYSAucZAUkB2GLGBZQguL8xWsEpMTFiQBukRu7hYXotdhDsNQh7UEuXaPWqpKipWCAiBeoaA9Fc9e+GqrhAoIgSkv4roZaoqeYFAz549U8+xdHmH0qT4ZCqXdoRALSAACafvrRaAXUaRzDLEVhlmfRG/D87T+EJcQHxgCYL1BmQFcTzi5XLJy5K5ECGUNWvWrDLneRzKghix67iGmCAQJ7bMLveifHueZVRDp4VAlRCIv+8qXajMZRCoaxwr0l/xQ1ZXf02ePNmtuuqqKT1lZRaD/qrr92ZY1sZWdasNVIu3zLr8XmpTf9WX/lddvr/i/a+onzXjW4qlHCkSn9S+EBACxYMAbi107iE3zIqDNH5xkGWICaw2IEOw1ICs4NgsOkCEMkwoi2MaexplflzDtSaW3+7HPbjO3G7IZ3nsGm2FgBAQAobAsvSX6Y+a6C/uJf1liGsrBIRAthDIhf5S/ytbb0vl1FcERIrU1zevetcrBLDSgKjANcUIEQCAlIDMgPRgMIFAnCBGgkBuMPPKdZbHtiGj/xOfY3BCByAWzvOzRptzHEuEgBAQAstCIBP9xUpXsTuf9NeyUNV5ISAEcoGA9FcuUNY9hEDNEdCopOYYqgQhkNcIQIZAfBghwr6Zg9NYQ1RAfBiRQX6bdbWKGYHBoIN9I07sPKQJ5xCuhTQhLRbSuTfXW3nxee0LASEgBJIIZKq/0GWI9FcSQR0LASFQVwhIf9UV8rqvEKg6AiJFqo6ZrhACBYUARASkB6QFAwd+EBak02AjWIywD5kBYZG0BCGPncfVhmsphy2xQThn7jJcz6xtkviAFOG+6cqmfIkQEAJCIIlApvqLfNJfSfR0LASEQF0iIP1Vl+jr3kKgagiIFKkaXsotBPIWAQgHfhAUBD414dgsP7DwILApxAZbuwbChB+DCvOp55wJZdjqMJSF1QlpNjtrViiW36xG7Jgt12HSnu5cnE/7QkAI1D8ETBdJf9W/d68aC4FCR0D6q9DfoJ5fCPiYYgJBCAiBwkYAIgPCgkbZCAfSOE5aa8Q1NaKEQYhZh3A9+5yjTAuEimsNZImVbwRHXN6y9rnWrl9WXp0XAkKgfiAg/VU/3rNqKQSKEQHpr2J8q6pTfUVApEh9ffOqd8EhQOMLgYFAShjBYLFAsMKA0DCXFraQGqRBkHANxAbWIuxbWVxP3rhMrEhI58d9cI0x95iCA04PLASEQJ0jUNv6KyZtpb/q/HXrAYRAUSEg/VVUr1OVEQJpERApkhYWJQqB/EEAEgNig9gdCI0zAwA6/gjncYchD8I5fkZ6sI+bC1tIEixAZs+eHcrB7YXykHhZXogQjuO0kEl/hIAQEAJVQCBX+gv9ZiL9ZUhoKwSEQE0QkP6qCXq6VggUFgJLexGF9dx6WiFQMAhAOphVR2UPTT4sOhCsNkwgNKyTb2QHxAbWHRynK5vrLd4HedincYcUwaLEXGvSXWv31VYICAEhIP2lb0AICIFCRUD6q1DfnJ5bCOQeAQVazT3mumM9QgD3kzjoaUVVh7TAegNrEAgPfjTmiM2A2hbCgx+kCGIuM+Gg9I9ZidgWixBIESvXSBfOc0+eUyIEhIAQiBGQ/orR0L4QEAKFhID0VyG9LT2rEKh7BGQpUvfvQE9QxAhAPtAwm2UGRAc/c3Wh6hATEBa4w0B8kBfygutwX4kJEIOKfJxHzCUGcoO4H5Aldj/K5nruh4UI1xgxwrWcoyzFCwENiRAQAjEC6fQXuiUW6a8YDe0LASGQLwik01822WTPWOj6a4mfTGvQsmVJdXw/ct5tt7mGXbu6Jrvv7nyHz81/5BHXdI89nO9gWpVLtvRFp02jE4hPtlv49tuu0SqruIZrrVU2H0e+3MXjx7tFX37pmuy0k/MdxlSeJax0WNoXTSWm2WmAe/fyy6c5oyQhkD8IiBTJn3ehJ6ljBEaOHOmGDx+e8VP07dvXXXvttZXmp1FGrOGF/EAgKbDewH2FNIgJfnYOogPrEbZxGbbPlsbdSA/KIj+EB+cgWCg3HsCYC47ihASYs/anNr6brD2cCqoTBGr6TYwePdpNnjw542fv3LmzW2+99TLOn2lG0zex/oJ8xfqtqvrriCOOcD/++GO4NbrLiFv0kh3bc6EfL7roIte/f/+Q9Nxzz7kJEybY6Yy2vXr1cttvv31GeWua6cgjj3RTpkzJuJhLLrnEDRw4MOR/5pln3Pvvv5/xtWQcMGCA24nBSQ6kJnXLwePV6BbFXLeaAFMTXNAPr7zySpVuv+WWW7qWNrCv0pWVZ06nv7jCJoYy7X8df/zxburUqSlXZdNX6Kl0+uvSSy916667btBxWdNdfoJrye+/O39D16BNm5KKez06Cx03b75rPeoNt3jixECKNPK6BVJk3u23u3k33+wWjBjhlrv+etdgpZWWAub7ir8PHuwaeV3S7LTT3Zyzz3ZNDzzQNeve3c2/5Ra35Lff3JIZM9yiX391i8eMSV1HWtPDDksdz/V1XfDkk6njinYatFjOtf7fuyWn/XNTDtIAogTCRFIhAjX5f8z39qXCStfRCZEidQS8bpt/CEAq/Pzzz+5235DE8tBDD7lNN93UdevWLZU8wjcyFXXSaTBpKE0gO4wMwVoDYVBhliDWqFp+tlzD81CWNbxGgHA+mUbjb2VzHiE/+SS1i0BNvxsGwOeee27GD8mAig6XJH8RqOk38eqrr7rnn38+4wpuvfXWWSNFlqW/IFwhNKqqvxhUDBkyxG277bahXgxMxvvZx++++87tuOOOqbpi6XbssceGgYslvvHGG+7DDz8M15M2btw498knn7j99tsvZEFHb7zJJm4V36FHRo0aFUiKXJEiv/zyS5m68Qxj/EBi0qRJaevG92FicZ7smO1XX33l3n33XXfAAQfEyal9CKlcSU3qlqtnrO59alo3iLuPP/44o9uvvfba7vLLL88ob11nqgkuM2fOdLfeemuVqgDJly1SZFn6iwcjT1X01zRvUQFxs8MOO6Tq9dFHHwXdtcsuu6TSTHfR37P+V7Z019y//MXNf+wx12jDDV3L0j7q4i++cEumT3dNvO7zM2hukdeLSCP/rSHNvB71HclAjszae2/X6r77XANvDVKpeMuTeffeG7JAZDTsuZprutdermHv3q7h6qu7Rn6bTppstVVZ0iXKNP+BB6Ijv+vxmb3//m7x99+7Ziee6Jodd1zZ8zoqg0BN/h/zvX0pU9E8OBApkgcvQY+QXwgw4zrDs9g0nMgLL7wQSJEePXqE49atW7t33nmnDClijayRH5ARDB7YQljQWNKRNZICRUVerDYgRTifTuwZIEloZGOhDCNfGKQwQ0M+0iibNJ5BkhsEqvPd8GQrrrii2993EDKVleLZnkwvUr46QaC638SJvqPIL1dSFf2FDquO/uIeK6+8ssPCDkIEHcXA4oMPPnDH+U4xRAH6Cj2J7iI/9zFZp18/d9ZZZ4XDBx980P3mZzLt+Ek/U7n7bru5bbbZJpz/xc9u5lriunFv2gjqdsIJJ4RHwUUxnT6G0OIXyy1+pvann35yZ5xxRpxcZ/vVrVudPXAVblyTum2xxRauT58+Gd2tQ4cOGeXLl0zVxaVjx46OSaNcSlX0F89lbsaZ9r/oU1Ev012U8eabbwb9ddJJJwV9Rf+sVatWQW/RF4v7XzXVXQvfey8QIty3RaQTFnodgzTEStCTUYs8URyOV+kRjtlv6i30gsWHd33xD+iW+GdrkEG/sOlBB7nm55xDERlJs2OOSe96469e8OyzwZolVZDX681O99Ypp53m5t10k2vqyaZlkjWpi+vnTnX/HwuhfcmnNypSJJ/ehp4lbxBgkIrViMmwYcNs1/373/9OddotkQ49jaCZlHNMxx/rDTPhtLxsIS+YqeAaGmj2+dkggH0aYruWLXljieOAMFCxhp4OAuXzMxImvk77tYfAsr6bdHfu1KmTO9CbrUqKE4HqfBO1jQQdeNMT3CsX+svqBMk8LNKnpENm8DwMMjE9R/cxYCk0/ZWubkOHDg1VH+xN1TN1z/zcW4/lmzVYtupm30E+batbNyPh8qku2XyW6uKSzWdIV1ZN9Rf9KfRNpv0v9BFSGR6DBg1yWHFSLuXT98uW/sINBmm45pquoSeVTRb4OCDIPE+i8jOZ+5dhjl9ScJdJWmYs8S6Ni14osUpchOWJt94I4l11FnsrvqQ0bNfO+colk6t83MQ/y1xvibJkzh9unu9TNz/vvCqXUd8uqOz7K/T2JV/epUiRfHkTeo68QuA+b2ZolhmYTJ57zrlu0JaDwjMy4/PSSy+lSAoaQbMEMRKDGUFWkyEdsoJGlfLsPI0laZyHCCE/swscUx4Sx/4wkiOcqOAP94mJkgqyKbkWEUh+N+efd77bfIvNwx35bl71bhGS+oVAPnwTse4BffQMAwL0Sq70l+k+BpIbbbRR+Age8UEA6ejd5oMDIpjQowvRjdkaUISCc/RnWXXL5DF4H5/6Gd+TTz45k+w5y5ONuuXsYat4o2KuWxWhKJM9X3Cpa/2FPqKftiw80F3oLfphWdNfWIB4qxSkaanrYTign+gnzxp5CzoEN5rF33wT9i0tHCT+NExYmuLCMu/uu0OuRd6ybaF33UPme2sffklp4YmfEMQ1eaKqx/RXd9whBILFkqQ5LsQeZ0nFCCzr+6v4yqVn8rV9WfqEdbsnUqRu8dfd8xABAhxi+syggY58UCKffeoWLV4UOuuYUdLgkW4/qkHDacI+Aw4acxpIymE/FjtPGvsMCBiscC354/Li67Sfnwjw3RAHIJYxY8e4hYtKXKP4biT1C4G6+ibQXUZ6oFMgXNEvplPQL7iv1IX+IgjjrFmzwodAXKbf/YxkTBYy47osIagpboz5JtWtG+4/3377bagO74qYU7gWEYcllrX8yhDENqgLqW7d6uJZq3rPYq5bVbGI89cVLvmqv7KBR1V11wLvOmPScJ11bDcQCC3vvDN1PM8HUsWipJl3e2lWBbeXhr5fgquMScMePWw3bBv6OE2NfCwRVp4JpIsnh9LJ/Icfdg1eey3dqUDYEJ8kKQ3X9vXxxHggdHz5DddYI5lFxxEC1f3+CqF9iapZp7siReoUft28NhGgYc2UrWdwYIOEiT6C96OPPhYeDbKib9813RdffOljiEwMg4oBA/oHNxky2D3+4oNgEfzPBh12jnKNWIEUoTwTzuGjaibVXCtLD0OncLZ8A8gPP/zgnnhi6cxKnz593dix48KP83w3yWC4pEuKD4FsfBP45b/w4ovLBGdbb3lBsD/0Cz+zNkOfoG/QPwjPZPu2Nf1l52N9yfVWD8phsB4LZdh50jPRX+R5xa/yNeWHKamiVlqpU5n/m0xW0XnPDxT6lc6Qpgqq452a1A0ChPYDMXKEIK38TL7wpu0EXq0LUqQ6dSMAKYFIqyO5DCZdnbpVp06Fdk1NcMEd7zQfM4IyKhP0zfArrwxWsfmuv2qCR4xBVXUX7i0mFQU5ZVnc+fc/ELLhisIvKU18MOsWHmuTJd69G2ngSY+mfvUskyWlq2g18a6MC3yA60beZafFVVe5OT42EqQIx+mEpX+rKo1790pdstjHUBIpkoKj3E5Nvr98b1/KVbYOE5aO0OrwIXRrIZBtBCAcmG3DBSUTooFG/FcfnA8XBzqdzMjFMT6ID8IggEEtgTEtujoDEO4xcMDAsDqNxQShPpTJNQwoeB7KS5pVdunSJdtVV3k5RoCgvFiBbOIjwENy8d6TwjcQfzfJ8zouLgRq+k2gL+gEdWjfPkVkVIQQ+odvDoKC7wwTbgheG5CwZfCBrjIyJE7jeq5DP7E1Ib/pTruOgYsJeeP8ll7RlsCobfxSklf+9a+OaPrphPN2z3TnSWNlFgiCZHDiJGlT0fW1kV7TusXkwQ033BAsFe+///4yj3r00UeXOc7VQXXr1s7HHohXFarK8+bKqq66datKXQoxb01xQX+t6N8/esN0R0U4kDeX+suepyr6q6Z4WN2ro7tYGtcktRSvJZRuFzzxRIjNYcm2+gzHxAXBEsM3EHY6bMPyvn5vkV8OPCzr6/cb+aDBthJMQ98HbvD+B26BXw69uQ/uCkHSoG1bl7QksUJDoNWElYmdm3vJpbZbduu/EZMlfoUfSXoEavr95XP7kr7GdZe6tAdUd8+gOwuBrCNApx+CwhpAuwEdfTr/DCDIwwCCPGwhUYjwzACCYH9vvfWWXZYyMye6OEusIVxvg4R99t0nBFYljcaWQQkCiUIaYgOdcKA/RYMADZatCHPxxRe719KYkPId2HdTNBVXRSpEoKbfBDpju+22czvttFMZa7eK9Ff8IOgZ8sVWSegk0mJB75n+QldC/KIDY/1lBAXPE7vfxOVksm8uIe09yQOhccghh6S97Oyzz3Z7+eUfkdhqxTJ/6U2sWc2lu5/dtKV9Ode5c+dgcfe8j0+yfI7darJVN6sjS/lCyueD1KRuvCNWFcpXqUnd8rVO2XiubOBCf+qCCy4IuiT+Py5E/ZUNPHgv1dVdS0pdDcO79X3TcuL1/XwfAy+WZuee5xr3864pXp/P8suWQ4o03n77OIvzQe9Sx8QVQRqssIJbXLpyVwM/0dN4003cgpdfdnNLLUyabF4SHy11YbTDkrwQKelk7vDhZVefKc3UIFpafEn0POnKqK9p2fr+DL98al/smfJpK1Ikn96GniWrCNDRt04/BUOEoGBIt46/rRBDw83sZXtvKWKzrLv5JR5tWUzKedk3Djf55cNMGHxQJluuZxDCtaTZPYwQ4Zp438rQtvARsO/GahJ/N6S9/vrr7tprr7XT2tYDBLLxTVRVfxms6CAIj3gwwjFkMHqMfYT9XOmvaaWzgFgPmE5+6KGH3Aq+E25y1FFH2W7Y8mxJud77zUPUXOXNuRl4meBuQfBr6ojly9eR24nlqa1tturG89GWjPYrz2y7zba19bhVKjebdavSjXOQuZjrVhP4soVLseivbOFRXd3V0FtnpITJNq//YpnvlyfHrQULDlZw+cMvjTvH69IWt97iFtx7r1vsdWHDXr0cpEUsi30AVyTEIDnzTDeTZX29LCmNY9TQ94Ub7rprIEUWlLpxNj4gu6vkLSl9Bu4LISMpj0C2vj9Kzrf2pXxt6z5FpEjdvwM9QRYR4J+ejjENMp3qmPSwwQLnELakYbrJUro/et/NHr5hsXx0uuNOO6SHlc89IDn4cR8GGuxb2VmskorKcwTsu7HHTH43fFuS+oVAdb8J0y/V0V+GMPorJgxIN5IEXWdWI5Am3C8X+gs8ECxFfvK+48jyyy9fRr+GxGX8gQyhfm3jgYK/ZnUfCJCfyVne4iRXkq268bzf+MEN1jp9+vbJ1eNXep9s1q3SG9XByWKuW03grAkuxai/aoJH/B6qq7saeHdtkyV+4q6Bt2Y2WehdX+Zefnk4hBBp7F14m3uCeO6FF7o/DjsspBPgdDnvkuc7qHZZ2FqsEmKKxGLL8LJKTUOvU3GZwdKk0YABJdYnceYa7ptVCsWIFEkPZra+P0rPt/YlfY3rNlWkSN3ir7vXEAFmHWmI6egjmGeSBkERz4jaAIBzDAzY2kwk+Vg+l5VDtvJsupEdzGTyi4XBBtdSHtdhUi6pvwjYd8NSaSbpvpvYlcHyscWKxAaJcfqy9vG5r4uAi8t6Lp3HKrlEl2TyTcR6COyqq78Md66PdR+6kR/6Ct1l1iLoy1wSuKzmBcGMpYh97yx1XlXJR32brbqBxdixYwMkPXv2rCo0tZI/m3WrlQesQaE1qdt0P0h8MYMgyOkejz4G8aXyVaqCC/oL/WJSjPqrKngYDum21dVdMWmxyOuHxqWkyBIf2H3OCSeGWzXxrjEQIksIho01SSQNWrdyi7z+hVxp4Cf2TIglgjRcZRVLCtsFzz8ftg26dnXz//nPkngkPmXxmLFu4f/+5xpvuGGZ/Haw0PefG5YS3paW2s6bn9qNdxaXBpcmrVHiOeJ89Xk/W98fGOZb+5KP71WkSD6+FT1TxghAbEByYFKN2TSNshEkFAJxQcPNeQYLJgwIOEcaZbDUFbK595lkAHHyySe7gw8+OJzjWn4I55j5xwJFIgRGjRoVQKCji5zuI+4n3QBI57tBWH40lhF+Kc53fYelqsJ3KlKkqqjlJn9Vvgl0D/FH0FEI+utBbw5tJrNYRaCjzLqDfOgtvifS+dmghKDNu+++ezgH+UFZlI+u48c1SQuS3CDiwgBy5513Ds/bu3dvd683604nxOZhwJlO3vYxng4//PB0p8qlsYJYJkv7lruwGgkMjqtbNwLyWtvDrYlHBIH6zDPPlHsSXLJ49489VrIy2tChQ4O1TbmMWUyoSd2y+Bi1UlRN6vadD15JQNzqCPFi8pkUqQou6Cn0D3oKGT9+vGP5T75TpCr6a9999w2B7tFT+aS/qoJHbeiuxv37O6w9lsz5wy3yKzo1pq/hMZ/t+6iksWJLM78//1//cvPuvjtFYjTadNMQU4Rr5vhYZw2uuto19bHvmuyzTyBCFpb2O+LVZBZ9/nl4b40228zN/fOf3YJS4q+JJ1wWvP22++P//T/X3K8o1dSXkZS5112XTCpznG5J3kUffhjy4N7TwMeFkpRHoCbfX763L+VrW/cpIkXq/h3oCWqAAGQFjSixQmicGTRAjpgwmKCBRchLI02DbcQJ+SE4WCZtC78EGYFUSSPgalfPlJOXgQfC6jQEAuT4Q6/M40B/IYP+1DsE7Lth1QyEgWlyRaHKvpurvTuApLgQqOo38cEHHwQLNXQYugdLCluWFVKDNHQX+g2iA52EzkMsjfNGgpCGjoqJ37pEeIpf4hGzXdOXPOuaaZZ1vOuuu9ybb77pGHAiFrzYnr1bt24h8KwdV7Y14qCyPNk4V9O6MYiK41TxTLRfyTR7VkjVCRMmhEMG17gg1ZbUtG619VzZKLemdVt77bWLMnB2dXBB10DyoL9mzvzdTfIxLKzPVBX9NX36jFBOPumv6uDB95lV3eX1ZeOth7oFnmxa8PTTrtmppwZXmEaeSPAzgq6lt+ZY6K075v7tb+FfI8QW8XkCeeJTCJQ67x//8JYeYwJp0sDHCmnqA11jgdLEEyrBbcW3MbE08m7k8/2yvrjOtLzxRtfQxxtp5IlsAqbOv/VW13TPPZlxjC9xTX2A7AYVrKY4Lx2B6OOJLPBxoJCmPqi4pDwCNf3+8rl9KV/b/EgRKZIf70FPUQMEGCSY9QaNsTXIFMk5GlkaZwYSdMhpvONBBoOHY4891v3gzRGZpbMBR/KRaPiZnWeQwsoQgwcPTmbRcT1D4Bgf1IzvpjLRd1MZOsV3rjrfBFYN6BV01znnnJPSYegtYkyYXsIqDmI3qb/QYYjpuXxCFYL5r34Z3nRESPyc/fsPSB328UtD9qLTXyoHHHBAIH3WKw0GaOkVbbFGiduBivLVNL2mdVvFm4wTIDYfpaZ1y8c62TMVc92sjtXZVhcXCDoml9ZZZ2138803p/73Cl1/VRePbOuuZscfH0iRxT//7BaOHBkIj+aQI14gNZp4QmLRZ5+5xr5f2thP7vkXkHr9TbxFGb+Fn37mFj7ztGviV6PxnVzX0pMbBGgN4o+bHnSQgzBptNpqrrG3RG3gXcObHnhgcLshD0RKQ3/OzzKWIUQae4uUBt41s5m3IqmIFIG88R3vknuV/p3vlxFGIF64j6Q8AjX9/vK5fSlf2/xIaeAHjCmHQExO88WXNT/g0VPUJgLZ/t4YPNjnDEli5AY+/gwaGEggzKjyo9OMxQjEicS5bL8PYSoE8gmBfP++C0V/5TuONfnmVLeaoFd31+q91R32dudC0V88byF+L/O9pcb8//zHNVp1VdcineWFvYhC2HqSZPaRRzpWn2l24omOmChVkUJ8f1Wpn/LmDoHktyRLkdxhrzvVIgLMSPAjmBWzqcxa4D8P4cHPTNB5BIgQc5+pxUdS0UJACAiBjBCQ/soIJmUSAkIgDxGQ/qr9l4KlBr+iEO8i2NK750iEQL4hIFIk396InqdaCJivPdYfkCEQI5aGj3YuTKmr9eC6SAgIgXqPgOkq6a96/ykIACFQcAhIfxXcK9MDCwEhkAYBkSJpQFFS4SFAo2x+9Tx9HGxVhEjhvU89sRCoTwhIf9Wnt626CoHiQkD6q7jep2ojBOorAiUh7Oug9sR5eOihh0K0eW7/6quvhmPSMxGCk/3LL0H15ZdfZpI9bR7iT7BSwJ133pn2fDLxk08+KbcUKxYJuGYgd9xxR0ZlPe0jSLPigMn999/vrvPLWeGTyfJ8FS33+rlfLmum98FLJ9Rh2LBhIYhouvNxGqthsHoK9+LZWbapol98XT7vE4hQLjH5/Ib0bEJACFSEgPRXRcgoXQgIgXxHQPor39+Qnk8ICIFMEKgzSxGWHRzul3ca4tfc3syvif3oY4+5N0eNcpv7qMfEhahMIEJYGhVhyaHufmmppLRv3z4sc5hMTx7fcsstDrJjVR+8qLLVRN7xa3qf6AMCEWUbAoMVJZB/+uWwICSuvvpqB7mBHHHEEWGb7g9L6l3k1/lGXnjhhVDO66+/HsiZVbqv4i67/LJwjxt8IKW2PiqzybvvvutOOOGEsNwnkfxZig9ywwRyhzxEG+7v1zU36dixY1he9j8+QBP3++KLLwL5YudPP/10d80119hhue0bb7wRVj4od0IJQkAICAEhIASEgBAQAkJACAgBISAEChyBOiNFqovbN34JKSNEKOOBBx5IW1SfPn3LkCLPPfdcWD89mdnWE7/22mvduHHjkqcDobDbbru5DTbYwO2///7uwQcfdAcffLC76aabAgHx+OOPh2tw0cBqBPnUL32FNG3axLG0YCxPlC5DRZlGrBADAxm4wUB3kF8W698+ABHEyj333ONat25dcm7gQLfvvvs6yI1DfLAliA+sPZLy97//vUzS//PLZEGmYGHy0Ucfpc5xf8goe+bNPBm16SabpM5jxQPWEiEgBISAEBACQkAICAEhIASEgBAQAsWKQM5IkZ/9+trPPvusGzJkSFrLjiTAX3/9tfvf//7nhvr1tbH6QF588UV38cUXpywdNtpoI3f44YcHt4kFCxYEiw0sJpATTjg+bO0PVhKvvfaaHZbbfv/998HqI3li/fXXdxAIrGBy5plnhu1j3qqFaNsQMr/99lu4BIsLkyOOODzsYsFCXhMICAgP5MBoXW5MD5H5fv3vU/3a4/hntmnTJtSL+7C0LPeHDFrNrxM+16/3jcXKpK8nuVdffy1Y2EBqDB60ZSjn8SceDxYlGwzcwPVds29Ig8iBaMEC5b777gsEC4SNYdJvnXUC6RMy+z9veKsdkSKGhrZCQAgIASEgBISAEBACQkAICAEhUIwI5IwUIR4GA3KIgWOOOaZCLC0o5ssvv+xwbenUqZPbcsstAxFw5ZVXBkJkiy22CDE5cBeZMWOmJ0YOC4QIriErrLBCsOJYY401ytwDi4ndd989lfb+++8HggLCozK3mXbt2qWuYQfSYr/99nO4weBGg2BB0qRJE3evX0ccgmOvvfYK6WYJEg78n9tuu81BDq277rquV69eIRk8iG2CQKAQ42PSpEluwoQJ7h//+Eeoy8Ybb+ymTZvm7r77bnf88ceH1VXI37VrV3fd9deFe/7Zu+RwP3AePXq0++GHH9wpp5zizBIG9x/SxowZw6Xuqaee8hYtn6bOP/LII+5j70Zk8mm0b2naCgEhIASEgBAQAkJACAgBISAEhIAQKCYEckaKDPTuHwhkR2WkiBEEDOIRLDUQXEwgRRjY77LLLm7s2LGhnHHjxrpzzjkn5IGQuP3224NbS0iI/mBZEcsvU38Jh3379nWDBg2KT6Xdnzx5cohfYic7dOgQCJjjjjvO7b333oG0gRQhNglkRFIIrAqpgbTyLjHk+eqrrxwWKia45sTSpUuXVNDVSy+9NFh1TJg40V191VWBHKIMgrMO3XrrEJME4gTSBRywYLngggsCsQLRZDFbrHysXMhHXBeE6/hJhIAQEAJCQAgIASEgBISAEBACQkAI1BcEckaKEBh0He+i8dlnny3TLYOBPvEviAvCdQhBRVkhBQuKgw462Mf/GFvuHXHdnnvuGa4bMKB/cDHhnp07dy6Xd+ovU0MalhXx8q2WkeVdt99+ezt0t956awhUagm4oBCTY+rUqcGixVbNIfArFi4mkDrrrbdeICgsraEnKYwQIRAqViaQI9xv2223dd26dQvuL/FznXHGGaHu77z9drBWISAtljHIy34lHn5JIebIY48+5vbca0934AEHuCGDBzvIFeToo48Obkyb+DgiWM1UJGa5U9F5pQsBISAEhIAQEAJCQAgIASEgBISAEChUBHJGigAQA3BIEdxeBgwYUCFmFhdkk002TuU56qijypEpxNHo6C02CDraokWL4BLC0r4QJkaaYG1BcNPk4P4zT4YguJHwSwpWFDEpAgmBK8p7770fysZ9Jt11kBssFWyC286GG27oZs2aFVxmIHUQXGlYXYbnxnrmrLPOCmQIrkLpBGIHdxrcZ7bdZls3YOAAN378eNeqVatwHTFHcKfB3QirGkiXP//5z677KiUr8+CCAzYmxGs59NBDg8UKK8xUJNwP7CVCQAgIASEgBISAEBACQkAICAEhIASKDYGckiIERmVgjxVIZaQIK8UgEBEmxx57rCMdAoQfbi8QAVt71xFiceCeQhBXrEmIm8FKMmP9b7AnGZKECC46n3z8cSiaZXYhJmJhed3YSoNzO+20U8hCHBEIFyxYrvJuLCY33nhjIG0gUggOa8ISuQRKPfnkk4OlDKvLICuvvLJlSbn7LCuwKYQHFitYl1Cnb7/9NiwnTP332GOPgMu5557rdt555xD3BNLGVrahzqxmY8IyxP/3f/8X7o01DTLRu+ZgbUO8E8PEYpLYddneck9J/iCg95E/70JPkn0E9H1nB9NixlF1y843kutS9N5yjXhh36+Yv5fCfjOZPb3eX2Y4KVfVEMgpKWKDb6wUKrI+wP2ElWKw8CAgqQlkAwN5+1l6utVf7BwEBARKUiAfGPwTjPXII49MnnaQIliKVCa412y11VYhy+uvv56yYoG46d27tzvssMPKkDH77LOPIy5JOsFdBsFiA/IiSeLE15x//vnBlYhVbCCAkCSBY/mNEOGYJXbBjnpRd4LVcj9IFFa0QS7ywVqffvppd+GFF7q11147pNX2n549e9b2LVR+hgjQyOh9ZAiWshUcAvq+s/PKihlH1S0730iuSwnvbUSvXN82J/ebuOsE17NI65YTANPcJGCqvmcaZAojqZj1dGG8geJ5Sr6lWHJKimDZwUovuHGwwko6gRBBsMxIkgNvvvlmmcCk8fWxa4ilm3WHHdv2rbfeCrvE76hIcEvJRCAaICqQfffdNywjjNUI8T4gGcziorKyIDUgWF555ZVwHUvlInPmzClzPa45WNlA5kBuEBiV1XaSOCXvhasPVi09evQIcVAgVFied9AWg4K1CcQIQhBbhKWHLZbL/fffHyxywgn9EQJCQAgIASEgBISAEBACQkAICAEhUEQINMx1XbCYYFWU5FK39hy4flxyySVu1113taTUltVZsMrg9/DDDwc3Ek6yKo2ls8VKA0lHSEAk3HzzzeF87OYSEvyfBQsWhN2WLVtaUoXb66+/PliaYHnBCjAEQ73rrrvcJptuGqxdiCdiREOFhZSeMILmv//9byorrj24G5k8//zzYXe77bZzU6ZMCRYfrHZTkUAUEa8EAgVChFV/jECBiCEAK5YpBLHlRz0Q4p9YWkVlK10ICAEhIASEgBAQAkJACAgBISAEhEChI5BzUoSAn8S/MEuEJIAM4HfccccyMTcsD+cgKyZO/CoM8CE4NvbBWyE3SLcflhFImzZt7NKwnTt3rhs2bFgY/O+3334hQGmZDP4AsgEhbkdSPvZxSB599NGQPGLECPfLL7+E/YMPPthdcfnlwaKitV9u97prr3VDvOUHz8c9MxHcWbp37x7ioxCMNcQ98VYor732eupyXFsQ4qhg7YGYS1I4SPwZPXp0COAKwQFhY8RLnA3LnZf8yjX8zLKG1XMsDeseiRAQAkJACAgBISAEhIAQEAJCQAgIgWJEIGfuMwQInRD57vwxe3bA82PvDnKGd9cY4wfwCFYirTyxYNLL+/0dd9xxbt68ecEa5HG/kgzL0iIQIpdfdllwM8EiA+uHn376yY0cOTKct1gdHOCKwn1Y+Qby4aSTTgp5+ENsDogDCACzzCAuSCyUyzVYUxDv5N577w1bSAWCvr722mshoKpZYmznXXPWWnNNBzFhMTvi8pL7xP8455xz3AknnBDus8suu4QsLC2MEDx2knc5ggQhJsoDDzwQ0o3ICAfRn5/9UsFzfD4EixlW/kkKZRKk1QTSB2H1nA5+VR8EoumUU04J+/ojBISAEBACQkAICAEhIASEgBAQAkKgmBDIGSnCErhGZsQAEih1pI+lYWLL8doxZAZy8cUXh9Vn2McVhOVkcbGBhGBp2v33359TKWFpW6w2TO64445wfwiNv//972VcayADTjvtNMsa4nTg5hMLsTUgRHBpwT3n7rvvdjfddFOIcZIunoldy0ouRnBYWkVbVuc5/fTT3TXXXONuv/32kA2rGcRwwXWGlXaQQw45JATGxCLFhBVqEMOUmCMxDpaPLTFKzPIlTo+X6OV6kSIxOtoXAkJACAgBISAEhIAQEAJCQAgIgWJBIGekCBYdmbqSxOBi/YGcddZZgciAFBg4cGAqNgbnIB5Y8na2tz6BJCHOxjbbbMOplBDfA7caAowml5nFpefoo48O1iScwz0FC4lYjj/++FA2hAgWJaxas9tuuwXrDdxoFi1aFH6LFy92/Ey6du1qu+H5cavpWxpINXUi2jnwwAPd6quv7iBaqIMFXeW+rAhD3XALatu2rbPlfXFFGksbWc0AACqVSURBVD58eEjHxQjXmlGjRgXLGfCKpV+/fmG5XsgOlgt+8skn49Pl9llOWCIEhIAQEAJCQAgIASEgBISAEBACQqAYEWjgY1cssYppmSNDQttcIKDvLRcoZ34PvY/MsVLOwkNA33d23lkx46i6ZecbyXUp4b0V6bK1WpI3+1+TluTNPqa5LLGY9XQucdS9nI9ROjF4XBgWMgMwJLQVAkJACAgBISAEhIAQEAJCQAgIASEgBOoVAiJF6tXrVmWFgBAQAkJACAgBISAEhIAQEAJCQAgIAUNApIghoa0QEAJCQAgIASEgBISAEBACQkAICAEhUK8QEClSr163KltVBAgOzDLNLIPM6kOffvpZRkV8+OGH7n//+18q7zvvvJNaKjqVWMHOo4886r766qtwFn83lkhesGBBBbnrZ3JV3gsBmFlSO5vy+uuvh2W5q1Im38MzzzyT9pIXX3yxwqDHBHJOJ0/45clZ8hthSXGWCbfVutLlZ7Up8lVHWL77lWiVsIrK4FlZ9jyd8GxPP/10uYDbpLOaV7yKVrrrlSYEhIAQEAK5QWDh0vUC3Pezm7ubPu3sZs4vWZvhg5/buN8XNKrwQb6b1dw9PL5jufMvftvOffxLm5D+4jft3EdTS/bjjPMWNXAPfdnRzSi9F+de+a6dGz+j7OIH8TXaL0GAfsS4cePKwEG7yuqZhI+0fRaGSAqrcNJPNZkyZUqF/RXLo216BFhsIwrXGcYCDz74YMhM+ptvvlnmfPpSlqaSf1mLYizN7Rzvkj5qLNyXZ/jxxx/DvdnnHSflu+++K3Mvxh7ce8aMGcmsaY+5j41f0mX44Ycf3F133VVpX5V+7XPPPRcWL2HLIikVCeeT33xFeTNJz9nqM5k8jPIIgZogcN5557nnn38+4yJYtvnaa6+tNP/8+fPdbbfd5tZZZx33uV9W+sILLwzLJrNKUCwM0r/44ouwQhCrEz311FPhH3nDDTcM2SBWVl55ZTdkyJD4snL7rDp02eWXuUsuucQ1btw4lHHLLbc4VhXafPPNy+Rv3ry569ixfMejTKY8OKjL90L1WYKb93HjjTe69dZbz7399ts+7aZKkTnooAMdy2HTiXj//ffL5aWRQhm3XK6la96iebnzm266aVghKj7B98My3n379g2rSNk5FD5LjrMKVnL5bsi4PfbYw7H61VFHHWWXhC0dHVbAWmuttdzUqVPd9ddf73bYYYcyy43bBRBDlLH6Gmu4q6+6yv3nP/+pkIRgBa/jjjsurLJl17/11luBFNnKr56FTJgwIfxYUn369OmhcaUhhnjp3r17+L9ipaxYID+uu+660EH4y1/+kjoFmcOPZ5cIASEgBIRA9RE47bXVyl3cZ8U5bsbcRm789BblzlnCzVuNd41Lp0khQXZ9bE33r+0muvU7zHD/+7G1u+PTTu7otaY4yJKr3l/ZzVvY0P196ETXpeU8KyK1/XL6cu6v73Z1+/T+OZXGzv1j2ruBK89y67Wf4R4Y196t13F2KD/ONMuTLcP/19Wt3X6Oa9OuZDB0vb/fvn1+cb3bzHZ/GtnLffxTWYJkcLcZ7tLNJsXFFMQ+g+dJkya5Tp06hT5eTR/6zjvvdNtuu21q1UrKmzx5srvmmmvCqpP0J9jfc889y7Tv5INQYZBMPwShv3LFFVeEftAHH3zgTjnllJAe/+F+rP4pKYsAfUOwe+mll8IqoEwGQQbsv//+7ttvv3XnnHNO6M//+c9/dvTjKxMILPJtv/325fqHFV3HBNZXX3/tBg0alMrCt3aV7/v17NkzjBvYZwVSxiWxMI4ZNmxY6l6QIRyzqimrwe68885u3ryy//OnnnKq23OvPUMx1Jn68dtnn33iosM+9acvvuuuu6btq5KJPjqYDR482PGNgSd9R/qm1GPs2LGhHmDH+Ix+sK3UWu6GVUxoXMX8yi4E8hIBBlwMGlkqORYGaaeddlr4h+rcuXN8yrHcMNe1aFFxRyG+gEEyCgoFgdVIPEhl8My9H3vssTAojK+bOXOm++STT9yaa67pmHGPpV27dqFBJA1ixUgayJdYaMj4xULjh+LNZ6nr9wI2//d//+ewYGBZbsgmiJFDDjk4BduIESPCwP7QQw9NpfXu3TvsY6nDu4AUSwppI54cUSYZEo1G5c477ypHihxyyCGBcb/yyivdrbfemroOcoPv6aSTTkql2Q4EA98bPxj8888/P+TlW+FefFtYwUBOIHyHfKPt27dPdXpoRC699NJw3bm+oULAY5LvLFUkzA5A7lUkkCrPPvusW9dj2dk3qmCx1157OXCDwIuF5+H/EOF/ETwhVyBNIIRo1A444IDw/dNp69atW5kl1+OytC8EhIAQEAIVI9Cz7Vw39Y8m7smJK7r9+vzsWjZZ7Lq3nu+atl3iZnvCgfSzN/ouFHDf6A5upZbz3XarTneNSgkRTrz1w/Lh/FrtZobt6F9auN7t/nBNG5UsVnn7tl+680at6g55Zg33t62+duusWPFMLiTKHwsbh3IWLm4QtvbnjwUNU9YnyzVe6PM1cse/XNL2nvt6d7dc0xKLhu9nNXP3junourRe4KbNbewGdZ3h61bS5v3zsw5utidoCknee+8998ADDzi2tP0IbSiDwMMOOyxt+3fQQQf7GfGxod3NZDKMchcuXOiYEEkK/Qb6D0y80V7fc889jn4Q13Af5PffZ4ZjyJD99tsv7P/zn//01zTx/Yep7swzzwzlJ8vO92P6UkmrizX8ZBGTjscee2yq33Oy7ze+OWqU++tf/+q22WabtNVisE6fLDnByqRZv3XXDSQCF3766achD/v06SAY6Jcy+USfn3EAAillFiUhwf9hwov+3Y++nwcxkE6WX3750L9Nd876inwLSZk1a1boQ5JOGXyPf/vb30I2+w6WLPH/wF7OPffcMPHGs5x++ul+ArikT3zaaae6efOXkiRgBQEEbhByp556agrTUFAGf/gmeW5ID8Y4kCvgYv1E+up8i/3798+gtKplKdFUVbtGuYVA3iHALPWf/vSnCp+Lf8x0ghXBJptsEszZHn300XJZFpQqEgZu//3vf8N5/mFHjnw1sJUwvxtssEG56+IEszSgEeQXC6wrs+YMXBksMnhE+dA4mjCgbeoZ2rN8IxSLKdI4Ld/28+G9oFghImh8IKXAFiIC9h3WnGdcrmXLwMTj+nHZZZc5XFNiga2GpTahU4H1z0EHHVSGaSc9tgZCscdkFkQcJAbv1AQizTomlkaD2bp163CI9UhL/3yXX355aGxoGN94441wjoaBnwnEC0IHp0uXLqFh4bti5uCGG25wK664Yjh/wgknhO2y/tx+++0BM8whISxoDAcMGBAuo55YuCxLmAnbd999y2SDHIkl/t+AcOG9SISAEBACQqBqCJy47g/usYkd3OvftXFnDvzOLW21nJvvXVNemtzW7VtqwfHK5DYOK5K9e00tc5NR37d2g7pNT5Egn/+6nFt7xZLBOxlbNvazzoMmupNf6e2++K15ihSBALnuo65u8syS2e+rPujqlvfExj8+WTobvXGXpQTKw190cPyQv2/9lRvYcbob2n26m/hbC7eFt/7o1LLEbfi2mc3cmivOTlmldPYkz7re2gRZodkKbpYnVwpFGHgyGKbNp20fOHCgo43EypkZdCY2zjrrrDLVof2FEEGYiU9aKjMIxz2XWfhRfiDPABjrTibj0olZZa7rB+533HGH69evX2hzmaTYaacdwyW4JNAfHbTFoFQR5GeyxCY5UicKaIe+NnL22WeHLUQQbkP0dagX/T+kbZsS167HfV+wIlLk8ccfL8nbtm3Y8odJIFxXTjzxxJAGKUXfCYteE4gRLMDJQ3/Q+vJMRjGpZvL777PCe6cvN8u/m/ic5WFr/bqvvXUIz8SYA/KCviITk4888kicPbWPNYcJGHCf9ddfP+Bg3wHfBPeF+MFSBME6qF+/ElKkSZMmVkRqC7G30korhTET5FumE89WQPNmzR2EDbLaaqsFQgTM7N1ZvtrYihSpDVRVZp0hwOAP0yqTtl5ZMXCFmcXM3wRTq6FDh9phYMzblCrBVKLfMTMx/vHtfKwgGeQuS57xM+p9+vR1w4dfGbIyS49VCYN0s0DA9cFiNsCMprMAedk3hrEQnwLFUwhS1++F93TGGWekoKKhglhIDr6JBYMSNgKkQ4cOwaohdWHpDg0NA3msh2LzQxoNZlXatVshdQlMv4n5ZfINmPTo0SN0iuK05HeFZQUuORA8NGQnn3xyICgwj8R0cJLvVDFzQ0OLlQjmuMjpvs7veFNECBGuh8QY7Emh2KzSniPdlsaM754tnTj20zWC6a5NpoGXPRedBBpOLGp69FglZMXXlZkAiRAQAkJACFQfgXd+aOU2WnlmGUIk09IgTkZ5QqVNs4XuwGf7hMvGT1vO/Ty7qRvjt7Es9oYjj45f0b3siZZbho53C5c0dGN+Wc5Nn1cytGB/nzWmuQd2LhnoXfRWt/hyt0vPX92BfUvawh6t/3BNfHdq795TA4myeZdZbq12JQOjh72rzYCVZrvV25ZYPczxliG/ld6D5y0kufrqq8PjMviO22Fmw5k8eOihh4J7S+yW8sILL4RrGBg+/fQz5UgRZuaJw8AAH1JlXKkLBP1X3GDiSRgKwjKkadOmrlWrVqFcrGcZtGM9ykQdwrmRI0cGtwjcGRBiknGd9WNCYgH+oS8TT9TQFzniiCOCmwYTNkYyUDX6T+CbtDSnDwPBlZTPPvssvAfeI310G0PcfPPN5eLQNW/eIvT1mZjFvZn3G1sR896++WZymICj78T7wBq3a9euyduGY0gUvgO+Ae7LPhPCfFsQZQcfXGIFZBczAQvRRX+Tfh115JvE3dy+A945E4C479gYCMIiHk9ZefGW/PyqI4sWLwoYMkGGtQkW27hs0w9O58ZVnXtUdI1IkYqQUXpBIjB58jfu4YcfTj07A1SEf+A4/eijj07lYWejjTYKbDnKLx4oM/OPiRz+bxbvgUBCKC7IkbjhKlNg6QFWCCM9UXPMMccEFpZkG/zCyGKyhmBRgOUCg1esBDbbbLOQzp9h3pKktW+gmKWPZYUVlg684/R83K+r94IJH0w3QmNy+OGHh30IMeK32HFI9H9GjXrT7eX9bU14v/heYko5xjcwJtbQYZkRvwcajZiVh8SA8DKhEYJwwerDBKsOrIXifHYu3lIWYsQCDRmNGCQObDzCPqSISQe/f99994U4JpgfYgHDt04Mj8oE89ztttsu1fki2C/E1kUXXRQu4/nx+UzXKSAD1iTJjhizDdOmTQvXW4CviRMn+MavpKNr50IG/RECQkAICIEqI4C1xpvfL+/O2OCHKl/LBQRQPWztn1LXflQav2OnntM8aVHiPpM6WbqzXOMSN5fmjRa7O7f7MgRGPfPVHmE/ztvCn4+lXYuFKaIjTmf/Ty+tViYpvvODYzs6fiZYtRSCYBXA4I6+ZEyI8OxYhtK+YvGM1Yf1LelvMrgewsTIxpuEmHMMFIkHYcKglx8WJLhVx/2adINX+rjWn7Ay2EIAxJau8Tn2zcIkmV7ox/TJqBuEBhYy1v+GPIFooo+GdU8sEAcIeWLBJQlXbRNcdegjxpOpds629NuSQowXrIjpM1qfD8sPyJuKSBGsN+irMeFKTJG/e8sjEyxYkoJlCP3idFLZd8AEXDrhec0ynvO4q9P/jIO+Wn8c8gmsTLBohsCjzw7mCBbeuDbhao1FPmOm2palT1Tbd1L5QqAWEaCBwByuefNmKVM0bmcz/rCgZqJm6ZAMsTK66667glsF25gYIT8uClgFYDqIYsLyhGut4SJPOrGBLsQKMUjM9BBFaoQI1xGMFIEUwecxnVBGLCjl2EohPpcv+3X9XmDH6VRgPRT71tIhwVwyXo3FTFQ33WzTcvDN9MGmMDHdeuutwzk6GrjFwO7bDAINqjWU5QooTYC8wBUmU4GQMR9TGlZMZ02YrbGZHktLbu1bohNFWbh78U7YjwWSh4aI7xJrFwIEQ4qkEwg8BOunvffeK+zT0eM5L7jggnCc7rscPnx4OBf/ofGWCAEhIASEQHYQePLrDm6Oj81xydvd3NXvdQ6F/nunL938xQ3dlNlNwrkvp5e0QbO928l0H4CV444t5rm23jpkxeYL3cnrfZ96mCNfWD3EEzm9/3eptKrsQGZ88kuJK8Js/1yxfP9707AaTbNGi1zfFUqsQuz85YMmu15tStqak15ZtYzVCxYm+/X5NWT9+0clVpF2XT5vaSeRLbbYIu1jWmD+2E2C2X7cOnB5ZWBIIH4GzHFMu3SFYXkJCcMse1KIcUE7T18Aa2oTYjQwCEdwv8FtPBYsO5s2bRIsJyoaGMf5C2nfrHNj8oDJobXXXjtMJjGxGefB3R4r3Y8++qhMNcnPD6HPiYUs8dYydVnmui+//DJY9dIfo4/H+0boo9HPjPt95DESJ2RK/IGEoG8b18uyjB8/PvT5GBsRyy0Wm0TGDYe6x8JYi/4wEk8wL/GmY/S3sY7G6hrLZDDs4a2hTZh45v8AqxisjkzYZ9xFeezTR+UZGGcxYUZ/PR6v2XXZ3ooUyTaiKq9OEGBgijkcDUHMJsKE7rTTToGpjdMhJJJ+mZjQYSkAU08MCdhZFAJCo8Q/KP+cECKYPlY0aDQAGDjTIDFwxq0Bn1GIFaxHYD8rEthVXBxMIEx43tj/j3O4NOS71PV7sUE6RBbEgAmmoqzqEhMlEFYw/MbKW17b4nLF+0PobECK4JJCAF2EBnNZpAhERlVcnnbfffdwD3yDaVzpLP3TzwQgfJt8iyNffdXNKHUNw6qIGaANvJ+yWUnRANksBz6sNKIxuUJZ5CE/S+NW1PBgkon1B6QI317PnqsFDLn+tddeC6QIz2tEJOmxYAppZAmNNDNb8f2wHjGTzfg67QsBISAEhMCyEZjvDTFu/aSEJNhr9alu9XZz3RXvdPNkSDN3YmR5ccBTS/sfY35tGYKvnjLwe3dIn6UWItwNsuSTn1sFV5pjXko/o3zDkIkOC5F08riPbUK8j+ve75I6vaWPFWLy0mRP9PtfC29pMmr/Tyw5bL+a3swtKg3MOnNeWTKl/XILUiRKO0/iFEpMESM7KppMow/CZEO8xKi5zkCkMKGCpSdWmhWRIgRkx+KEwSj92HRCnxQhdon1EzimP8SAHME9JClrrbVmmNizeGfJ84V6TL0ff/yJ8Pi4k8QC8UG/jnhzuLkgxG2h/4UFeZIUia/lOogMXLUN1/i8TRrGaYwPCLpv1hIEco0Fa9845h39OYsxF+cjBgnjDiaE2aYTC6qKW0pyosyeN52lESSHrfYSEzSsQMPP4uZwz6QbDTjyww0mnqgmL/1DyqWPyfPQJ6Q/SuxH6hxb4JC/NkSkSG2gqjJzjgCDXhRVRVIRqw3DakEfUS433PC3YJ6GCws+gOa/RlwSUxqVRaOO7w8DbwPBMJj11iY0bLhXWLlxftvHjIxnMTHliD9hUnABoSHNV8nH98JAHCYb8oD3Q6NGjBBjxvH5xawv+Y5wOSF/LEQrt+BTNJLxeyMfppMxGUPsD94nSt4E/18kTsNcEDIP00Z+5h7DcxEAzMrkHI3eQh+gC2njyTMICzONjRtYLE2SzxcuquQPjRMNmHUCmKUgNgtWIZBHmPVC9MQuRBUVR+fOXHsglRDMKi0GUGy1U1EZShcCQkAICIH0CIz4qoP7xa88g/RZca4b1GW6u8J1cx1aLHCP7DrWPfhFe/fUxHbuvh1LBr7nvbmKW2OFOe6wNX927ZqXtCFxySybi8zw8Tv6tJvjl+zF7qNE3pnS2n3x63KuYYOyhMg3vzf37jslsSqwVhm22Tfu9f0/9jPIDdzxL/Wyy8N2/74/u+P7TSljBWIZHvbP2twHdEWwfIllib8CNyHET0wXjJiVpbXP6R68RYvmPibEzHCK2X1znTEL062Hbh2sRQgabxMyWHoSKJOJC/qakC5MpuFqgTuD9XHtfrTFPEPyObiWfi9i/U72LcAlgUCRdFYH4USB/KFu1p//yWOGizsC0WRxM6wqTKZi1YBliJEiuNNADBCLpSLBYsKsfOkjxTEMuYbyGib67sRuYVKWsnG3gQhglT8TSBjeKRN6CNbjFhiWY+752Wefh+D49NWYlCWQLrHasJqG/IgFDCDZ0o0h7Duwd27ls+V7qM1vgO8SzHl+vntw4N1AosTfZVyXbO2LFMkWkiqnThEgMnI66wsGsVh32Ex58iGxJImFAEsMThkox0ukogz5ZySdpbsyFZsZ5/5YstgqOCi3dIL1AcrLhIBG//EWKrv44FcE/YwFRZZOmcV56no/H98L1kRE6TbBnA8x01b2G3uiISkbbbyx27o0OC/fFO+KBip2n6GxjAWlDjGBQGxAnDDLEvtdGkEQp5EXUiQpmBdi/QLZxOwGsUgQZpaYLeD7MuKB9JtuuimQKli0WANNeqZyhvcdfdub0SI01FirYBEDMUjcEGaT4tVv6JwlO1qQNvyfxbFWrKHF3zQmashHfokQEAJCQAhUDYG+3jLkqH4/+sCnJe4qdnUjT1z0WH6O+31+I7dm+z/CPueWb7LIW4EsSh1bfrYz5jd2Iyas6AZ0+t198GNrt6KP/3FY3x9DFpb2fdwHWIXUaNpw6VVv/9i2TCyQEXuMTq0YQ66YVOG4mV/it5V/hnRy49CvfaDVknhguz6+VirLj7Oaurs+Wyn8LLFQYoowiYFgKZnOYpRBLcTExr6vgdAnoM/AoN2IjZ9++jmcw/LYSBEsP2ylGSwwcW8wi824fQ0X+j8MNJPtNOfipWVx2cD9AYFsQSpz0wgZCuiPLWzAIw8eXBJ8HquQpIAj7i/0uZi4gQxgMjIZ4y95HSQV/SMmQumb4bJtbjW4ROEOss/ee5e5jHfP4gtYcPB8Ve0LEeuQmCIIFkf//Oc/Uv2rdCQGE2hGtpV5EH9gfVliIJpVvC0aYCvrJK/J5jHW3O/62DpYRfENMzGdCxEpkguUdY9aRwBfSGacCfQTC2wpjKMNTONzDOqSpnKcZ1DJDD9KBOVkrCzWI+yf7Vf/uM7HQogJCSMyUCQ0TvjTxawsg1lcAzCn29MH8kyy0SyphgtCUiBiCH7VxFsIYA6ZFAahML35KnX9XtLhYkux2TkG+L/4xu7qRJwNO2/b1X2HxqJpm/sMnRfrmJDPGhK7JrY2weICv1LizGA2acI1kBt33XWXJVW6hZBhlgErlWUJsw6YIzLbVB051AeSPcV/93QCaKQhRJglwOKFYF809JB9zCrwv8eMBJZO8frx/P8lcTH3GaKaV+SuU53n1TVCQAgIgfqKACQCvyQpYnh8Ma2F27J7iRWCpVW0/dfnJW44l242yT0xsb274YPO3uJkodu626/urDdWDcv7HrZmWXebNf1qMRdu8q1r5C1Khr3ZPRAin/7S2i3yq9IgkDKxfOdjinw0tYTAWa3NbDd1TjN3/YcrhyzXf9DJtW1eYqny/axmboS3cIHAwWqFQLAbdCoJ0H3HZ2Uni+Ly823fJu7oj5rVAcQHg2T6i1is0ufr27dveHSIDyR2/V5ppY5hmVYmFOiT0iYfeuihwXITEgMLTgavNtlD3IikcH9IEX70D4gdwsCde1tMkW+++TZ1TLwJrEHNKgGSZNiwYcliC+aYQXZsgbGsBycIK6QI11hf31yp013L2AFMISaIm3aSXy2QviBuLLibgDHkRzLYLi78xH0zwsomj9LdI10apBbWK1j2TvaEDISOjX3SlQUJAzGC8Dz08SwIv30Hs/03gRDv0CaE+Q7MOjhe1TFkzNIfJvLoSyL0L+MYjFm6RdpiRIqkhUWJhYgA/mfMRsPqIigwSA9MCW35LDsHi0tjYgyo1ZfGiZl4lBqMqyknzjPDj2sFFiQQIxf7gayx8JAgCMtwUeYff8wJx/aH8izq8pgxY4PLQUyMoLBokEzmerKD2QFTPCgvGi1Y59iHj0Y036Uu30sSGzog30z+Jvg9Js8t65hGztxnIKOQZbnPxGXyPUIQxIRIfD6Tfd43jSvfQCbxN9KRfpncx/JY4DdIERPeJ2IR0DFp5LuEFOniiRICZeH7CQHE/9DHniRMyh/eygVhFZvmpY1ynGc9/39bkc90nE/7QkAICAEhsGwEiDfy9YwW7sT2ZYmMdFc+N3lFd/+Yju649ab4AKwL3FFrT3E/+SCtF47q7u5o0yGU86/tJoZz8fVtmi50u/ecGlafsfRTRq4aiAw7HuJm2K4nb1YIPxIu3PRb17/D766tL2OrVX5zTRos8a453lXDu8ds12Na2P/RPwOy46rTfRDWkjbkma/aFkxMEcgF+gC0i5tttrkPVrlOsKLEwvPxxx8PdeMPE1242mCtwaozyQmbRx95NLjQfPDBByH4KpYOsYx6Y1Q4H6fF+zbTz0Qb/RIGxkxk/OH7F+YOvMoq3b2Vaa9wGXFKCPJqE3DE2KtPggU5q/qYtSuTY3GA2iQWjBOYkMUaJFjWXnFFGDcceeSRoe+GBQiWxmbNY9dzHI85LD3TrU3Q2RLKWEVXFofjxmh1GiauePdMUnXysT3sO+CZbOVNymPMY5ODPFc8Hkk+J5buF/r4NsP9KjJVqRdxTCwcAjFv7LsjVgkWJLUpIkVqE12VnXME+Ie1lVxoMCAo+Kdiphz3CDuHW0AszH4zU4+7AQPJK7wSo8FgSd5YYGHx0cNcEXMuFBtKhFVJenj3Ahh9LEhg7I0EoWyOsQTB3YLgV1wP+2mKlUbNGjZcIVieF5b5wgsvCPeBmbVAm7CnNFCFJHX1XmKM+B4glmDjqyMM/GkYEVt9hiV5jRwgojumfumE2BlYH8WRutPlS5cGEcL3C2kG6w8hQ2Nm3066a2ozjXrwPpPRyrnnDd6yivNmkomJ8Cq+E5gU8MOiivPp6tFuhXbJS3QsBISAEBACGSLw3pSW7je/sozJ/eNKLD/WWbHEJcXSk9uxv7Vy57+xiuvSap47tNRdxnMTbqOVZ7nHxrcPhMhKLeenYnokr08eP7fnZ57YoAQ/iZAI1nrgmj+7E/r9EM41abjYu9f4ZTy9ZcpJI3t5F9aF7uJNJ7n9n+nrdvHLARME9pZPO4egrKstX0KIhAsL6A8DTKyP6TueeOIJYfUSyAhccM199/zzzg8Dv5dffjm0+eayG1dz8JDBgfTAkiRdX3D3PXZ3O+y4Q7iECbuTvaVCLJTNoNcG5Via0B4zaMfNlklEBvY2CYRVhAVnjcupT/u41ljQWxtHpKs/k0PghvuzxRxhNRUmmCBK6MdtXOqOD9lSHfn222/D4g/33ntfauI0XTnEpjNyAQsXG2NYXsYvRjhAWuC+zPgHa5WjjzrabbjRhsH6FwsXXH/ov6b73qy85JZvBqsiXL0zJUUsTgo48Tws04tbGceEIcC6GDchc0VL3rOmxyJFaoqgri9IBCxwpT08DQGECKQF/8jmGpMu+CP/jJiY4ZpAw2HkxkC/4kdSiODMih1YoEBswLBigoa1CVYGXItiZOBLIFUUKo0YzCw+iygCBIXCmt0oAxQDZpjkYZBeXcWafNZ8OM72e7E6YWkDljT6VVkaza5nZgWSzKw8zH2Gd2nsPO8/dpmya803F5Lr8MMPt+SMtjQGmDFC6DBjxDfHrBKzD1gf2XcKQYE5q7H2XGcdnkxulM60Mr7OCD4aN1a8gQxK5+/KPWO/XL5Rm2WIy8N9hsaPWQy5z8TIaF8ICAEhUHMEPvy5tftxdlPXr8Ms9/2s5u7GDzs7SIj2aQKq2t1+864pWHa08Uvz3rz1RNfEu8GM/L6du+fz9u7Tqa3chiv/7vbs/au7Z3QHd9yLPUO8kX3X+NVt2WWaz2ul+EmDaLWYpj5uiA8BGU428tYfsVB+i9JgqpZ+79hO7u3vl3csI4ylyNbdp7vr/eo1/Tv+4f49poMb1HVGSCc/pf3kA8u2rCAuiZWZT1ssRYhbd7ufXGOii18s3bqXLI1qK8QlXSzIi3UmA2tIEfoH9ANow5mZR+gfmFtEvOxpOOn/0J+MB6kEAmV1QyYR6d/S16E8XEbo89B3MncfyrA4aFZeIW0z7ReRj8D2JpAHDNKRdH190pm0or8PcQBxAm7PPfucu+vuuwKJgXvx6quvHtxoWKmPvhK/qlr0ch/6e1iSp4uXGK8YY98B/cWkQIzZec7Rb8SVm77d9jtsH87hVsMkLd8ZYxNb0ZH89Avtm+PYxFZP4htjbJXpGAXyBSsq7sn9mFwDH8ZmWPwzGQfRZP1e7m99U7t3TbdL33hNS9L1QqAAEICkYJWRN73PnZkQ8tgM3Ij7Yawp/5gfecXzlQ+UiSRnxQmgisWI+ReGTIk/sO0oQRQprhemSPmn5p8f8oUBOi43PBMzCJAc99xzT8pEzEgRiqahIz9LCaNoIFQgUxjoF7rU9ntp5V2fWOq4Mj/QyjDMhB2nI8EvFosXAiFy7bXXlOmIxPkq2sekFusWzDD5biDOWG6PzooJDYUJDSWCxRLfcGWCFRTEWzPfcH3vzWORZDBf3Gb4HplF4ttkpoRvMl7Gr7J76JwQEAJCQAjkHoHj1/0xuLJw5wOf7eN6rjDHnbReiZ6v6GnGeSuR2fMburt3mOCJkQVu58fX9m4zTV3vdn+44VtOckO7TQuXbt19mnvpG0+WeHLk7Nd6+Lxd3eO7jXaTf1/OXfJOVzfxtxau+/JzK7pNhenjZ7R0f/OxS/7U/wfXZ4WSAf4Ra01xL0xq6w59pne47jhfL+S011ZzE/x9iDdykCd7CkkYBGNVyUCVmB/0JxmIYkHCYBA3DayV+VUkN0Ur2GGJjGswbi3JvmpF18fprEICCWLx1nDtJlaELQfLwBSrA9wXmAi0eCW2kEBcVr7vM+jntyxJ5oEkScZGowwmMk1wW8G9gzgiEAO2tC4TWmBsMWXoSxEXjn48K6ts5ifX+B5ioa+aXLHGzlc02cQ44r///W+wOsLao6pCfxOLdsY21q/ke4TAYRIXQo9FIugDMjHGlh/psbRcrmUIY8Cqn+kmz+K88T7WNSt1XMntseceqUk9Yv5B2CH8f0CI0P+lT0p8PQIRZ9NqRKRI/Ea0X9AIYIIYr9jBrLwFrCKY1AnHnxCC9cCOEqAKRW9CvBAjREjr169f+Kfs7weXmI2Zi4TlZxvHBInT2SfgEe4WkBZDhgwpw8ZynjIZtJpvJuQJViTJQTUz/8RBiV0M2Icdxg0kU9abe9aV5MN7uWr48AqxIuDu7zMrNylOYkeDQcNU2TfANXwHxACByDJ2O1kWCj1e6Sg+j+UJsxVmhsm3BFEB4UaDQEcGdh9h3yQZ2Z570LDFQuAq6o57Vz/PzGPeyf9BLDTi3HPnnXZ2Ww7eMnzHzCwk601wN4vXE19f0T7fNfiZZUtF+ZQuBISAEBACVUPg/h3HlVnp5aT1fwzL8jaNrDkocegqM9zKLZe2G5t0mu4e2mVOasWYA/pOdWv6FW0GdFwaB4TrcIbZxhMj/HC3GesDuC7flFVs/giuLk29Bchmncu6HnPdEB/ktfvy89ktd2/SVm09OwRq3XW1qRwGwQLluiFfu+aNFrlRP7R13VuXkC179v7NfT1ztmvrg68O6fqbZS+oLX0C+qYmTHQRv6OyyTbLG29ZvpWZdCbgLBimnadPySQGk2q00+wnB6r0lVm1Jm7X6Y9SJq4a9oxs6TdTFn3kOL/drz5v6ZPT16N/CDnCPmOSJGmABQXnIC5wb0lnzcM4hV8sECWQUxUJrlj0A3kvSQsjxgq8e74H9hlzJPuJ9DfpF8aWK5BsTNzyznGF4ZulfgcffHAY32BJFFsR8WwxqZF8VhayYMGK2ELF8oBTEiu+be6BdQx9RoR+tT07k9mZTFraPZa1beA71Cl7NpaP5AYSIZALBPS95QLlzO+h95E5VspZeAjo+87OOytmHFW37HwjuS4lvLcRvXJ925zcb+KuE1zPIq1bTgBMc5OAqcY6aZApjKRi1tOF8QaK5ymT31KCNy6eiqomQkAICAEhIASEgBAQAkJACAgBISAEhIAQqAwBkSKVoaNzQkAICAEhIASEgBAQAkJACAgBISAEhEDRIiBSpGhfrSomBISAEBACQkAICAEhIASEgBAQAkJACFSGgEiRytDROSEgBISAEBACQkAICAEhIASEgBAQAkKgaBEQKVK0r1YVEwJCQAgIASEgBISAEBACQkAICAEhIAQqQ0CkSGXo6JwQEAJCQAgIASEgBISAEBACQkAICAEhULQIiBQp2lerigkBISAEhIAQEAJCQAgIASEgBISAEBAClSEgUqQydHROCAgBISAEhIAQEAJCQAgIASEgBISAEChaBESKFO2rVcWEgBAQAkJACAgBISAEhIAQEAJCQAgIgcoQEClSGTo6JwSEgBAQAkJACAgBISAEhIAQEAJCQAgULQIiRYr21apiQkAICAEhIASEgBAQAkJACAgBISAEhEBlCDRY4sUyTJw40Xa1FQJCQAgIASEgBISAEBACQkAICAEhIASEQNEh0LNnz1Sd/j9iGVF401hROQAAAABJRU5ErkJggg==;" vertex="1" parent="1">
          <mxGeometry x="230.00058884393582" y="279.99889857700884" width="1093" height="125" as="geometry" />
        </mxCell>
        <mxCell id="HnoCS5KhanWHyarU9qus-25" style="edgeStyle=none;rounded=0;orthogonalLoop=1;jettySize=auto;html=1;dashed=1;fontColor=#666666;strokeColor=#666666;" edge="1" parent="1" source="HnoCS5KhanWHyarU9qus-28" target="HnoCS5KhanWHyarU9qus-31">
          <mxGeometry relative="1" as="geometry" />
        </mxCell>
        <mxCell id="HnoCS5KhanWHyarU9qus-26" style="edgeStyle=none;rounded=0;orthogonalLoop=1;jettySize=auto;html=1;fontColor=#666666;strokeColor=#666666;dashed=1;" edge="1" parent="1" source="HnoCS5KhanWHyarU9qus-28" target="HnoCS5KhanWHyarU9qus-36">
          <mxGeometry relative="1" as="geometry" />
        </mxCell>
        <mxCell id="HnoCS5KhanWHyarU9qus-27" value="触发" style="edgeLabel;html=1;align=center;verticalAlign=middle;resizable=0;points=[];fontColor=#666666;" vertex="1" connectable="0" parent="HnoCS5KhanWHyarU9qus-26">
          <mxGeometry x="0.0712" relative="1" as="geometry">
            <mxPoint as="offset" />
          </mxGeometry>
        </mxCell>
        <mxCell id="HnoCS5KhanWHyarU9qus-28" value="6. 通知&lt;b style=&quot;color: rgb(204 , 0 , 204)&quot;&gt;建单&lt;/b&gt;&lt;br&gt;责任人自己去建单" style="rounded=1;whiteSpace=wrap;html=1;strokeColor=#666666;" vertex="1" parent="1">
          <mxGeometry x="908" y="627.49" width="155" height="60" as="geometry" />
        </mxCell>
        <mxCell id="HnoCS5KhanWHyarU9qus-29" value="&lt;div style=&quot;text-align: left&quot;&gt;&lt;span style=&quot;color: rgb(102 , 102 , 102)&quot;&gt;5.1 POPO机器人群里@责任人后续需要建单&lt;/span&gt;&lt;/div&gt;&lt;font color=&quot;#666666&quot;&gt;&lt;div style=&quot;text-align: left&quot;&gt;&lt;span&gt;5.2 POPO机器人通知，每日做DDL快到期提醒&lt;/span&gt;&lt;/div&gt;&lt;/font&gt;" style="rounded=1;whiteSpace=wrap;html=1;strokeColor=#666666;" vertex="1" parent="1">
          <mxGeometry x="636.6300000000001" y="767.49" width="260.25" height="60" as="geometry" />
        </mxCell>
        <mxCell id="HnoCS5KhanWHyarU9qus-30" style="edgeStyle=none;rounded=0;orthogonalLoop=1;jettySize=auto;html=1;fontColor=#666666;strokeColor=#666666;" edge="1" parent="1" source="HnoCS5KhanWHyarU9qus-31" target="HnoCS5KhanWHyarU9qus-35">
          <mxGeometry relative="1" as="geometry" />
        </mxCell>
        <mxCell id="HnoCS5KhanWHyarU9qus-31" value="&lt;b&gt;&lt;font color=&quot;#009900&quot;&gt;7. QA排期&lt;/font&gt;&lt;/b&gt;" style="rounded=1;whiteSpace=wrap;html=1;strokeColor=#666666;" vertex="1" parent="1">
          <mxGeometry x="1130" y="627.49" width="155" height="60" as="geometry" />
        </mxCell>
        <mxCell id="HnoCS5KhanWHyarU9qus-32" style="edgeStyle=none;rounded=0;orthogonalLoop=1;jettySize=auto;html=1;dashed=1;strokeColor=#666666;entryX=0.5;entryY=0;entryDx=0;entryDy=0;" edge="1" parent="1" target="HnoCS5KhanWHyarU9qus-31">
          <mxGeometry relative="1" as="geometry">
            <mxPoint x="1130" y="420" as="sourcePoint" />
            <mxPoint x="1305.0043578604395" y="490" as="targetPoint" />
          </mxGeometry>
        </mxCell>
        <mxCell id="HnoCS5KhanWHyarU9qus-33" style="edgeStyle=none;rounded=0;orthogonalLoop=1;jettySize=auto;html=1;strokeColor=#666666;entryX=0.5;entryY=0;entryDx=0;entryDy=0;" edge="1" parent="1" target="HnoCS5KhanWHyarU9qus-28">
          <mxGeometry relative="1" as="geometry">
            <mxPoint x="1020" y="420" as="sourcePoint" />
            <mxPoint x="1217.5" y="637.4899999999998" as="targetPoint" />
            <Array as="points">
              <mxPoint x="1020" y="530" />
            </Array>
          </mxGeometry>
        </mxCell>
        <mxCell id="HnoCS5KhanWHyarU9qus-34" value="&lt;b&gt;&lt;font color=&quot;#cc00cc&quot;&gt;建单&lt;/font&gt;&lt;/b&gt;" style="edgeLabel;html=1;align=center;verticalAlign=middle;resizable=0;points=[];fontColor=#666666;" vertex="1" connectable="0" parent="HnoCS5KhanWHyarU9qus-33">
          <mxGeometry x="-0.0629" y="2" relative="1" as="geometry">
            <mxPoint as="offset" />
          </mxGeometry>
        </mxCell>
        <mxCell id="HnoCS5KhanWHyarU9qus-35" value="8. 开发完成 &amp;amp; 提测 &amp;amp; 合入" style="rounded=1;whiteSpace=wrap;html=1;strokeColor=#666666;" vertex="1" parent="1">
          <mxGeometry x="1370" y="627.49" width="155" height="60" as="geometry" />
        </mxCell>
        <mxCell id="HnoCS5KhanWHyarU9qus-36" value="&lt;div style=&quot;text-align: left&quot;&gt;&lt;span style=&quot;color: rgb(102 , 102 , 102)&quot;&gt;6.1 POPO机器人每周二、三&lt;/span&gt;&lt;span style=&quot;color: rgb(102 , 102 , 102)&quot;&gt;群里@大家，提醒是否需要建单&lt;/span&gt;&lt;/div&gt;&lt;div style=&quot;text-align: left&quot;&gt;&lt;span style=&quot;color: rgb(102 , 102 , 102)&quot;&gt;6.2 &lt;b&gt;值班同学需要特别关注该提醒&lt;/b&gt;&lt;/span&gt;&lt;/div&gt;" style="rounded=1;whiteSpace=wrap;html=1;strokeColor=#666666;" vertex="1" parent="1">
          <mxGeometry x="919" y="780" width="330.25" height="60" as="geometry" />
        </mxCell>
      </root>
    </mxGraphModel>
  </diagram>
</mxfile>
